<svg xmlns="http://www.w3.org/2000/svg" height="547.884" width="2153.117"><path d="M0 166.54l20.675 1.532c21.44-24.25 29.864-95.974 156.213-81.935-4.595 307.32-139.367 339.737-130.943 402.784 3.063 35.735 31.395 57.687 62.025 58.963 96.74-3.318 92.4-133.751 122.52-462.513h124.818c-6.637 115.883-24.76 231.767-26.802 345.353 1.532 75.554 47.477 115.884 107.971 116.394 99.548 3.318 130.943-112.82 130.943-162.34h-21.44c-2.043 40.84-21.697 70.195-63.558 71.98-114.097 1.533-51.305-200.625-50.54-369.856l135.538.766-.765-86.53C3.307-1.59 74.812-12.635 0 166.54z" fill="#00d5b1"/><flowRoot xml:space="preserve" style="line-height:0%;-inkscape-font-specification:'Commando Bold'" transform="translate(-6.29 -16.058)" font-style="normal" font-variant="normal" font-weight="700" font-stretch="normal" font-size="5.333" font-family="Commando" letter-spacing="0" word-spacing="0" fill="#000" fill-opacity="1" stroke="none" stroke-width="1" stroke-linecap="butt" stroke-linejoin="miter" stroke-opacity="1"><flowRegion><path d="M641.441 7.373h2499.407v602.119H641.441z"/></flowRegion><flowPara/></flowRoot><g aria-label="green pi" style="line-height:0%;-inkscape-font-specification:'Commando Bold'" font-weight="700" font-size="426.667" font-family="Minion Pro" letter-spacing="0" word-spacing="0" fill="#666"><path d="M920.908 185.946c-17.067 1.707-39.68 4.267-61.867 5.12-15.786-8.106-28.16-11.52-45.653-11.52h-.427c-37.973 0-82.346 22.187-82.346 69.974 0 26.453 15.786 48.213 41.813 56.746-8.107 7.68-21.76 19.2-43.52 28.16-.427 5.974 1.707 16.214 5.973 23.04 6.4 8.96 14.507 17.067 32 23.467-10.666 6.827-21.76 12.8-32 21.333-8.533 6.827-13.226 13.654-13.226 23.467 0 23.467 24.746 51.627 79.786 51.627 56.747 0 113.92-38.827 113.92-87.467 0-44.8-38.826-52.48-65.706-52.48-13.654 0-25.6.853-39.254.853-20.48 0-27.733-8.96-27.733-16.213 0-4.693 2.987-8.533 5.973-11.947 6.4.854 13.654 2.134 21.334 2.134 41.813 0 81.066-22.187 81.066-66.56 0-14.507-4.693-24.32-11.093-32.427l24.32 1.707c8.107-4.694 15.787-18.347 18.347-26.027zm-110.08 9.387c20.48 0 29.44 24.747 29.44 52.48 0 31.573-8.96 48.64-25.6 48.64-20.053 0-29.44-23.893-29.44-53.76 0-31.147 12.373-47.36 25.173-47.36zm2.987 186.88c15.786 0 25.173.853 36.693 3.413 13.653 3.84 23.893 12.8 23.893 28.16 0 22.614-19.2 40.107-51.626 40.107-33.707 0-55.04-20.48-55.04-41.387 0-8.533 3.84-15.36 9.813-21.333 5.973-6.827 15.36-8.96 35.84-8.96zM1016.907 224.773V179.12c-26.453 8.106-52.053 12.8-77.653 16.213v11.947c20.053 4.693 23.04 6.826 23.04 28.16v93.44c0 26.026-3.84 28.16-27.307 30.72v13.653h116.907V359.6c-32.853-2.56-34.987-4.694-34.987-30.72v-79.36c7.254-17.067 15.787-22.614 23.894-22.614 6.826 0 12.373 2.987 19.626 8.534 2.987 2.986 7.254 4.266 13.227 2.133 11.093-4.267 20.907-16.213 20.907-31.147 0-14.506-11.947-26.88-28.587-26.88-16.213 0-32.427 18.347-48.213 45.227zM1262.666 320.773c-14.933 12.8-31.146 18.347-47.786 18.347-30.72 0-55.894-23.04-57.6-68.694 41.813-1.706 94.293-5.546 101.973-6.826 9.387-1.28 11.947-6.827 12.373-15.36 0-34.987-29.866-68.694-69.546-68.694h-.427c-23.04 0-46.507 11.52-65.28 30.294-17.92 17.92-31.573 44.8-31.573 77.226 0 49.067 31.146 91.307 88.32 91.307 17.92 0 51.2-8.96 76.8-47.36zm-69.12-124.16c16.214 0 26.027 22.187 25.6 43.947 0 7.253-2.56 8.533-8.96 8.533-17.493.427-33.28.853-51.2 1.28 2.987-33.707 17.494-53.76 34.134-53.76zM1454.665 320.773c-14.933 12.8-31.147 18.347-47.787 18.347-30.72 0-55.893-23.04-57.6-68.694 41.814-1.706 94.294-5.546 101.974-6.826 9.386-1.28 11.946-6.827 12.373-15.36 0-34.987-29.867-68.694-69.547-68.694h-.426c-23.04 0-46.507 11.52-65.28 30.294-17.92 17.92-31.574 44.8-31.574 77.226 0 49.067 31.147 91.307 88.32 91.307 17.92 0 51.2-8.96 76.8-47.36zm-69.12-124.16c16.213 0 26.027 22.187 25.6 43.947 0 7.253-2.56 8.533-8.96 8.533-17.493.427-33.28.853-51.2 1.28 2.987-33.707 17.493-53.76 34.133-53.76zM1702.557 373.253V359.6c-22.186-2.987-24.746-4.267-24.746-31.147v-80.64c0-42.667-21.334-68.267-55.894-68.267-12.373 0-20.48 3.84-33.28 11.947-9.386 5.973-17.92 12.8-26.453 18.347v-31.147c-25.173 7.253-53.333 13.227-77.227 16.213v11.947c20.48 4.267 22.614 5.547 22.614 31.147v88.746c0 29.014-1.707 29.014-28.16 32.854v13.653h102.826V359.6c-17.92-2.56-20.053-4.267-20.053-30.72V225.626c11.093-8.533 20.48-13.226 31.573-13.226 15.36 0 29.44 9.386 29.44 40.106v72.534c0 30.72-2.133 32-20.053 34.56v13.653zM1892.85 206.426V175.28c-28.16 8.106-56.32 15.786-79.36 19.626v12.8c20.907 2.987 24.747 5.12 24.747 28.587v191.573c0 23.894-1.707 27.307-29.014 29.867v13.653h118.614v-13.653c-33.28-2.987-34.987-5.973-34.987-30.293v-54.187c6.4 2.56 15.787 5.12 26.454 5.12 54.613-12.8 103.68-53.76 103.68-116.48 0-40.96-26.88-82.347-77.227-82.347-7.253 0-14.933 2.987-23.467 8.107zm0 15.36c7.253-5.973 16.213-9.813 26.88-9.813 20.907 0 46.933 19.2 46.933 71.68 0 44.373-16.213 73.387-39.253 73.387-10.667 0-26.453-8.96-34.56-16.64zM2094.663 91.653c-15.787 0-29.867 13.227-29.867 29.867 0 16.213 14.08 29.866 29.867 29.866 17.493 0 30.72-13.653 30.72-29.866 0-16.64-13.227-29.867-30.293-29.867zm58.453 281.6V359.6c-25.6-2.987-27.733-5.547-27.733-34.987V179.546c-23.893 6.827-52.053 12.374-78.08 15.36v12.374c20.48 3.413 23.467 4.693 23.467 32.853v84.48c0 30.72-2.56 32-27.307 34.987v13.653z" style="-inkscape-font-specification:'Minion Pro Bold'"/></g><flowRoot xml:space="preserve" style="line-height:0%;-inkscape-font-specification:'Commando Bold'" font-style="normal" font-variant="normal" font-weight="700" font-stretch="normal" font-size="5.333" font-family="Commando" letter-spacing="0" word-spacing="0" fill="#000" fill-opacity="1" stroke="none" stroke-width="1" stroke-linecap="butt" stroke-linejoin="miter" stroke-opacity="1"><flowRegion><path d="M614.407 338.986h81.102v39.322h-81.102z"/></flowRegion><flowPara/></flowRoot></svg>