<svg xmlns="http://www.w3.org/2000/svg" width="2199.179" height="547.884"><path fill="#00d571" d="M0 166.54l20.675 1.532c21.44-24.25 29.864-95.974 156.213-81.935-4.595 307.32-139.367 339.737-130.943 402.784 3.063 35.735 31.395 57.687 62.025 58.963 96.74-3.318 92.4-133.751 122.52-462.513h124.818c-6.637 115.883-24.76 231.767-26.802 345.353 1.532 75.554 47.477 115.884 107.971 116.394 99.548 3.318 130.943-112.82 130.943-162.34h-21.44c-2.043 40.84-21.697 70.195-63.558 71.98-114.097 1.533-51.305-200.625-50.54-369.856l135.538.766-.765-86.53C3.307-1.59 74.812-12.635 0 166.54z"/><g style="line-height:0%;-inkscape-font-specification:'Commando Bold'"><path style="-inkscape-font-specification:'Minion Pro Bold'" d="M940.945 267.38h-128v14.934c44.8 3.84 46.933 7.253 46.933 37.12v40.533c0 12.8-3.413 20.054-9.813 23.894-5.547 3.84-15.36 5.12-23.894 5.12-69.973 0-101.546-67.414-101.546-131.84 0-76.8 44.373-122.88 95.573-122.88 40.107 0 72.107 20.053 82.347 67.84l16.213-3.414c-3.413-33.28-5.547-55.893-6.827-70.4-15.36-3.413-48.213-11.946-83.2-11.946-90.026 0-168.96 50.773-168.96 148.053 0 85.76 63.574 142.08 162.56 142.08 34.56 0 71.68-9.387 97.28-15.36-2.133-11.093-2.56-24.747-2.56-40.533v-33.707c0-28.587 2.56-30.293 23.894-34.56zm100.692-15.786v-45.653c-26.453 8.106-52.053 12.8-77.653 16.213v11.947c20.053 4.693 23.04 6.826 23.04 28.16v93.44c0 26.026-3.84 28.16-27.307 30.72v13.653h116.907v-13.653c-32.853-2.56-34.987-4.694-34.987-30.72v-79.36c7.254-17.067 15.787-22.614 23.894-22.614 6.826 0 12.373 2.987 19.626 8.534 2.987 2.986 7.254 4.266 13.227 2.133 11.093-4.267 20.907-16.213 20.907-31.147 0-14.506-11.947-26.88-28.587-26.88-16.213 0-32.427 18.347-48.213 45.227zm245.759 96c-14.933 12.8-31.146 18.347-47.786 18.347-30.72 0-55.894-23.04-57.6-68.694 41.813-1.706 94.293-5.546 101.973-6.826 9.387-1.28 11.947-6.827 12.373-15.36 0-34.987-29.866-68.694-69.546-68.694h-.427c-23.04 0-46.507 11.52-65.28 30.294-17.92 17.92-31.573 44.8-31.573 77.226 0 49.067 31.146 91.307 88.32 91.307 17.92 0 51.2-8.96 76.8-47.36zm-69.12-124.16c16.214 0 26.027 22.187 25.6 43.947 0 7.253-2.56 8.533-8.96 8.533-17.493.427-33.28.853-51.2 1.28 2.987-33.707 17.494-53.76 34.134-53.76zm261.119 124.16c-14.933 12.8-31.147 18.347-47.787 18.347-30.72 0-55.893-23.04-57.6-68.694 41.814-1.706 94.294-5.546 101.974-6.826 9.386-1.28 11.946-6.827 12.373-15.36 0-34.987-29.867-68.694-69.547-68.694h-.426c-23.04 0-46.507 11.52-65.28 30.294-17.92 17.92-31.574 44.8-31.574 77.226 0 49.067 31.147 91.307 88.32 91.307 17.92 0 51.2-8.96 76.8-47.36zm-69.12-124.16c16.213 0 26.027 22.187 25.6 43.947 0 7.253-2.56 8.533-8.96 8.533-17.493.427-33.28.853-51.2 1.28 2.987-33.707 17.493-53.76 34.133-53.76zm317.012 176.64v-13.653c-22.187-2.987-24.747-4.267-24.747-31.147v-80.64c0-42.667-21.333-68.267-55.893-68.267-12.373 0-20.48 3.84-33.28 11.947-9.386 5.973-17.92 12.8-26.453 18.347v-31.147c-25.173 7.253-53.333 13.227-77.227 16.213v11.947c20.48 4.267 22.614 5.547 22.614 31.147v88.746c0 29.014-1.707 29.014-28.16 32.854v13.653h102.826v-13.653c-17.92-2.56-20.053-4.267-20.053-30.72V252.447c11.093-8.533 20.48-13.226 31.573-13.226 15.36 0 29.44 9.386 29.44 40.106v72.534c0 30.72-2.133 32-20.053 34.56v13.653zm117.76-277.334v14.934c29.866 2.987 33.706 5.973 33.706 42.24v163.413c0 36.267-3.84 39.254-35.84 42.24v14.507h132.267v-14.507c-36.267-2.986-40.107-5.973-40.107-42.24v-58.88l29.014 7.254c4.693 0 11.093 0 17.493-.854 45.227-5.546 87.467-31.146 87.467-88.746 0-27.734-11.52-49.067-31.574-62.72-17.066-11.947-40.96-16.64-74.666-16.64zm90.026 34.134c0-6.4.854-10.667 3.84-13.227 2.56-2.133 7.68-4.266 15.787-4.266 26.027 0 52.907 15.786 52.907 64 0 57.6-34.134 68.693-49.494 68.693-8.96 0-17.92-2.133-23.04-4.267zm205.653-38.4c-15.787 0-29.867 13.227-29.867 29.867 0 16.213 14.08 29.866 29.867 29.866 17.493 0 30.72-13.653 30.72-29.866 0-16.64-13.227-29.867-30.293-29.867zm58.453 281.6v-13.653c-25.6-2.987-27.733-5.547-27.733-34.987V206.367c-23.893 6.827-52.053 12.374-78.08 15.36v12.374c20.48 3.413 23.467 4.693 23.467 32.853v84.48c0 30.72-2.56 32-27.307 34.987v13.653z" fill="#666" word-spacing="0" letter-spacing="0" font-family="Minion Pro" font-size="426.667" font-weight="700" aria-label="Green Pi"/></g></svg>