<svg xmlns="http://www.w3.org/2000/svg" xmlns:xlink="http://www.w3.org/1999/xlink" width="567.42" height="547.884" viewBox="0 0 150.13 144.961"><defs><linearGradient xlink:href="#a" id="b" x1="299.537" y1="1.936" x2="292.523" y2="551.339" gradientUnits="userSpaceOnUse" spreadMethod="reflect" gradientTransform="matrix(.26458 0 0 .26458 3.554 25.793)"/><linearGradient id="a"><stop style="stop-color:#90f;stop-opacity:1" offset="0"/><stop style="stop-color:#e600ff;stop-opacity:1" offset="1"/></linearGradient></defs><path fill="#00d571" d="m3.554 69.857 5.47.405c5.673-6.416 7.902-25.393 41.332-21.678-1.216 81.311-36.874 89.888-34.646 106.57.81 9.455 8.307 15.263 16.411 15.6 25.596-.878 24.448-35.388 32.417-122.373h33.025c-1.756 30.66-6.551 61.322-7.092 91.375.406 19.99 12.562 30.66 28.568 30.796 26.338.877 34.645-29.85 34.645-42.953h-5.673c-.54 10.806-5.74 18.573-16.816 19.045-30.188.405-13.575-53.082-13.372-97.858l35.861.203-.202-22.895C4.429 25.373 23.348 22.45 3.554 69.857z" style="mix-blend-mode:normal;fill:url(#b);fill-opacity:1;stroke:none;stroke-width:.264583" transform="translate(-3.554 -25.793)"/></svg>