<?xml version="1.0" encoding="UTF-8" standalone="no"?>
<svg
   xmlns:dc="http://purl.org/dc/elements/1.1/"
   xmlns:cc="http://creativecommons.org/ns#"
   xmlns:rdf="http://www.w3.org/1999/02/22-rdf-syntax-ns#"
   xmlns:svg="http://www.w3.org/2000/svg"
   xmlns="http://www.w3.org/2000/svg"
   xmlns:xlink="http://www.w3.org/1999/xlink"
   xmlns:sodipodi="http://sodipodi.sourceforge.net/DTD/sodipodi-0.dtd"
   xmlns:inkscape="http://www.inkscape.org/namespaces/inkscape"
   width="567"
   height="567"
   viewBox="0 0 150.01888 150.01878"
   version="1.1"
   id="svg12"
   sodipodi:docname="logo.svg"
   inkscape:version="1.0.2 (e86c870879, 2021-01-15)">
  <metadata
     id="metadata16">
    <rdf:RDF>
      <cc:Work
         rdf:about="">
        <dc:format>image/svg+xml</dc:format>
        <dc:type
           rdf:resource="http://purl.org/dc/dcmitype/StillImage" />
        <dc:title></dc:title>
      </cc:Work>
    </rdf:RDF>
  </metadata>
  <sodipodi:namedview
     pagecolor="#ffffff"
     bordercolor="#666666"
     borderopacity="1"
     objecttolerance="10"
     gridtolerance="10"
     guidetolerance="10"
     inkscape:pageopacity="0"
     inkscape:pageshadow="2"
     inkscape:window-width="1920"
     inkscape:window-height="1050"
     id="namedview14"
     showgrid="false"
     inkscape:zoom="0.68039344"
     inkscape:cx="567.57286"
     inkscape:cy="407.96025"
     inkscape:window-x="0"
     inkscape:window-y="0"
     inkscape:window-maximized="1"
     inkscape:current-layer="svg12" />
  <defs
     id="defs8">
    <linearGradient
       xlink:href="#a"
       id="b"
       x1="299.53699"
       y1="1.936"
       x2="292.52301"
       y2="551.33899"
       gradientUnits="userSpaceOnUse"
       spreadMethod="reflect"
       gradientTransform="matrix(0.26458,0,0,0.26458,0,3.1750015)" />
    <linearGradient
       id="a">
      <stop
         style="stop-color:#90f;stop-opacity:1"
         offset="0"
         id="stop3" />
      <stop
         style="stop-color:#e600ff;stop-opacity:1"
         offset="1"
         id="stop5" />
    </linearGradient>
  </defs>
  <path
     fill="#00d571"
     d="m 0,47.239002 5.47,0.405 c 5.673,-6.416 7.902,-25.393 41.332,-21.678 -1.216,81.311018 -36.874,89.888018 -34.646,106.570018 0.81,9.455 8.307,15.263 16.411,15.6 25.596,-0.878 24.448,-35.388 32.417,-122.373018 h 33.025 c -1.756,30.66 -6.551,61.322 -7.092,91.375018 0.406,19.99 12.562,30.66 28.568,30.796 26.338,0.877 34.645,-29.85 34.645,-42.953 h -5.673 c -0.54,10.806 -5.74,18.573 -16.816,19.045 -30.188,0.405 -13.575,-53.082018 -13.372,-97.858018 l 35.861,0.203 -0.202,-22.8950005 C 0.875,2.7550015 19.794,-0.1679985 0,47.239002 Z"
     style="mix-blend-mode:normal;fill:url(#b);fill-opacity:1;stroke:none;stroke-width:0.264583"
     id="path10" />
</svg>
