<svg xmlns="http://www.w3.org/2000/svg" xmlns:xlink="http://www.w3.org/1999/xlink" width="2533.503" height="547.884"><defs><linearGradient id="a"><stop style="stop-color:#90f;stop-opacity:1" offset="0"/><stop style="stop-color:#e600ff;stop-opacity:1" offset="1"/></linearGradient><linearGradient xlink:href="#a" id="b" x1="299.537" y1="1.936" x2="292.523" y2="551.339" gradientUnits="userSpaceOnUse" spreadMethod="reflect"/><linearGradient xlink:href="#a" id="d" x1="695.309" y1="341.366" x2="2575.503" y2="341.366" gradientUnits="userSpaceOnUse"/><path id="c" d="M695.31 39.308h2871.818v746.84H695.31z"/></defs><path fill="#00d571" d="m0 166.54 20.675 1.532c21.44-24.25 29.864-95.974 156.213-81.935-4.595 307.32-139.367 339.737-130.943 402.784 3.063 35.735 31.395 57.687 62.025 58.963 96.74-3.318 92.4-133.751 122.52-462.513h124.818c-6.637 115.883-24.76 231.767-26.802 345.353 1.532 75.554 47.477 115.884 107.971 116.394 99.548 3.318 130.943-112.82 130.943-162.34h-21.44c-2.043 40.84-21.697 70.195-63.558 71.98-114.097 1.533-51.305-200.625-50.54-369.856l135.538.766-.765-86.53C3.307-1.59 74.812-12.635 0 166.54z" style="mix-blend-mode:normal;fill:url(#b);fill-opacity:1;stroke:none"/><g style="font-style:normal;font-weight:400;font-size:466.667px;line-height:1.25;font-family:sans-serif;white-space:pre;shape-inside:url(#c);fill:url(#linearGradient942);fill-opacity:1;stroke:none"><path d="M829.242 148.866v14.933c35.466 1.867 39.2 3.734 39.2 44.8v183.867c0 38.267-3.734 42-42 44.8V452.2h130.2v-14.934c-43.4-2.8-47.6-5.133-47.6-44.333v-70.934l35 8.867c5.133.467 14 .467 21.466-.467 45.734-5.6 91.467-35.466 91.467-96.133 0-30.8-12.133-52.733-30.333-66.267-19.133-14-45.734-19.133-79.334-19.133zm79.8 42.933c0-12.6 1.4-17.733 5.133-21 2.8-3.266 13.067-5.6 26.133-5.6 38.267 0 70.467 20.534 70.467 70.934 0 57.866-36.4 74.2-67.2 74.2-15.867 0-28.933-3.267-34.533-6.067zM1321.109 427l-13.534-.467c-17.733-.934-21.933-3.734-21.933-27.534V244.066c-6.533 1.4-17.733 3.267-31.267 4.667-14 1.4-30.8 2.333-43.4 2.8v13.066l17.267 2.8c15.4 2.334 19.6 4.667 19.6 30.334v106.866c-16.333 15.4-33.133 22.4-50.4 22.4-21 0-41.533-11.2-41.533-52.266v-62.534c0-28.933 0-52.733 1.4-68.133-7.467 1.4-20.534 3.267-33.134 5.133-13.066.934-25.2 1.867-35.466 2.334v13.066l14 2.8c11.2 2.334 15.4 5.134 15.4 30.334v88.666c0 51.8 27.066 71.4 58.8 71.4 13.066 0 22.4-3.733 35.933-11.666 13.533-7.467 23.8-15.867 35-24.267V455l2.8 2.8c9.333-2.8 21-6.067 33.6-9.334 13.067-3.267 26.133-6.067 36.867-7.467zm92.866-135.334V240.8c-22.4 9.334-43.4 14.934-67.2 18.667v12.6c27.533 3.267 29.4 5.133 29.4 35.467v95.2c0 30.333-3.267 32.666-33.134 35.466v14h109.667v-14c-36.4-2.8-38.733-5.133-38.733-35.933v-82.133c9.8-26.6 25.666-41.067 38.266-41.067 7.467 0 13.067 2.8 20.067 9.333 2.8 3.267 7 3.734 12.133 1.4 9.8-4.2 15.4-14 15.4-23.8 0-11.666-11.2-24.266-27.533-24.266-22.867 0-42.467 25.2-57.4 49.933zm176.865-17.733v-36.867c-22.4 8.4-49 16.8-69.066 20.067v13.066c29.4 3.267 31.267 4.2 31.267 34.067v207.2c0 30.334-3.733 33.134-34.534 35.934v14.466h112.467V547.4c-36.866-2.8-40.133-5.6-40.133-39.2v-59.267c6.533 3.733 18.667 7.933 32.667 8.867 61.6-11.2 117.6-56 117.6-127.4 0-46.667-31.734-88.667-83.534-88.667-6.066 0-15.4 2.8-23.333 7zm0 17.266c12.6-9.333 32.668-20.066 47.134-20.066 33.6 0 63 27.066 63 77.466 0 51.334-26.6 84.934-66.733 84.934-15.867 0-33.133-7.467-43.4-18.2zM1869.906 452.2v-14c-30.8-2.8-34.533-5.134-34.533-35.934v-281.4c-16.334 5.6-45.267 13.533-70.934 16.333v13.067c30.334 2.8 33.134 3.733 33.134 35v217c0 30.333-4.2 33.133-34.067 35.933v14zm186.199-50.867c-16.8 15.4-34.533 23.333-54.134 23.333-32.666 0-68.133-25.667-69.066-86.8 56-1.867 115.267-6.533 123.2-7.933 8.867-1.867 10.733-6.067 10.733-15.867 0-37.333-32.2-72.333-71.4-72.333h-.467c-24.266 0-49.466 12.6-69.066 34.066-18.667 20.534-30.8 49.467-30.8 81.667 0 53.2 34.066 100.334 91.466 100.334 15.4 0 47.6-7.934 77.934-44.8zm-71.4-140.934c24.733 0 41.067 21.467 41.067 45.734 0 7-2.8 9.333-11.667 9.333-27.067.933-53.2 1.4-78.867 1.4 7.467-37.333 28-56.467 49-56.467zm228.665-111.533v14.933c35.467 1.867 39.2 3.734 39.2 44.8v183.867c0 38.267-3.733 42-42 44.8V452.2h130.2v-14.934c-43.4-2.8-47.6-5.133-47.6-44.333v-70.934l35 8.867c5.134.467 14 .467 21.467-.467 45.734-5.6 91.467-35.466 91.467-96.133 0-30.8-12.133-52.733-30.333-66.267-19.134-14-45.734-19.133-79.334-19.133zm79.8 42.933c0-12.6 1.4-17.733 5.134-21 2.8-3.266 13.067-5.6 26.133-5.6 38.267 0 70.467 20.534 70.467 70.934 0 57.866-36.4 74.2-67.2 74.2-15.867 0-28.933-3.267-34.533-6.067zM2519.97 147c-13.067 0-24.733 11.2-24.733 26.133 0 13.066 11.666 24.733 24.733 24.733 14 0 24.733-11.667 24.733-25.2 0-14.467-10.733-25.667-24.266-25.667zm55.533 305.2v-14c-30.333-2.8-33.6-5.6-33.6-36.867V240.799c-20.066 8.4-42.933 14.467-67.666 18.2v13.067c28.933 4.2 29.866 6.067 29.866 35v94.267c0 31.733-3.266 34.066-33.133 36.866v14z" style="font-style:normal;font-variant:normal;font-weight:400;font-stretch:normal;font-size:466.667px;font-family:'Minion Pro';-inkscape-font-specification:'Minion Pro';fill:url(#d);fill-opacity:1" aria-label="Purple Pi" transform="translate(-42 -36)"/></g></svg>